<svg xmlns="http://www.w3.org/2000/svg" version="1.1" xmlns:xlink="http://www.w3.org/1999/xlink" xmlns:svgjs="http://svgjs.dev/svgjs" viewBox="0 0 800 800"><circle r="12.5" cx="400" cy="132" fill="hsl(275, 75%, 70%)" opacity="0.57"></circle><circle r="10.5" cx="685" cy="284" fill="hsl(82, 75%, 70%)" opacity="0.74"></circle><circle r="5" cx="775" cy="8" fill="hsl(223, 75%, 70%)" opacity="0.65"></circle><circle r="6" cx="698" cy="12" fill="hsl(176, 75%, 70%)" opacity="0.75"></circle><circle r="10.5" cx="155" cy="91" fill="hsl(169, 75%, 70%)" opacity="0.98"></circle><circle r="10" cx="187" cy="310" fill="hsl(305, 75%, 70%)" opacity="0.60"></circle><circle r="8.5" cx="553" cy="513" fill="hsl(95, 75%, 70%)" opacity="0.29"></circle><circle r="7.5" cx="584" cy="759" fill="hsl(78, 75%, 70%)" opacity="0.23"></circle><circle r="8.5" cx="47" cy="256" fill="hsl(250, 75%, 70%)" opacity="0.34"></circle><circle r="11" cx="769" cy="628" fill="hsl(185, 75%, 70%)" opacity="0.32"></circle><circle r="12.5" cx="86" cy="697" fill="hsl(253, 75%, 70%)" opacity="0.18"></circle><circle r="12" cx="377" cy="545" fill="hsl(251, 75%, 70%)" opacity="0.92"></circle><circle r="7" cx="235" cy="318" fill="hsl(329, 75%, 70%)" opacity="0.96"></circle><circle r="16.5" cx="445" cy="87" fill="hsl(283, 75%, 70%)" opacity="0.28"></circle><circle r="15" cx="192" cy="269" fill="hsl(313, 75%, 70%)" opacity="0.84"></circle><circle r="8" cx="317" cy="776" fill="hsl(306, 75%, 70%)" opacity="0.81"></circle><circle r="16" cx="317" cy="26" fill="hsl(258, 75%, 70%)" opacity="0.11"></circle><circle r="11.5" cx="93" cy="198" fill="hsl(257, 75%, 70%)" opacity="0.84"></circle><circle r="6.5" cx="526" cy="723" fill="hsl(115, 75%, 70%)" opacity="0.90"></circle><circle r="6.5" cx="673" cy="501" fill="hsl(74, 75%, 70%)" opacity="0.50"></circle><circle r="14.5" cx="300" cy="647" fill="hsl(314, 75%, 70%)" opacity="0.90"></circle><circle r="8" cx="55" cy="601" fill="hsl(250, 75%, 70%)" opacity="0.29"></circle><circle r="7" cx="624" cy="735" fill="hsl(65, 75%, 70%)" opacity="0.52"></circle><circle r="6" cx="637" cy="386" fill="hsl(64, 75%, 70%)" opacity="0.20"></circle><circle r="6" cx="548" cy="575" fill="hsl(105, 75%, 70%)" opacity="0.62"></circle><circle r="7.5" cx="500" cy="634" fill="hsl(138, 75%, 70%)" opacity="0.22"></circle><circle r="10" cx="781" cy="451" fill="hsl(203, 75%, 70%)" opacity="0.99"></circle><circle r="8" cx="729" cy="184" fill="hsl(134, 75%, 70%)" opacity="0.98"></circle><circle r="10.5" cx="14" cy="316" fill="hsl(252, 75%, 70%)" opacity="0.55"></circle><circle r="5" cx="622" cy="454" fill="hsl(65, 75%, 70%)" opacity="0.60"></circle><circle r="11.5" cx="224" cy="344" fill="hsl(325, 75%, 70%)" opacity="0.27"></circle><circle r="6.5" cx="575" cy="316" fill="hsl(78, 75%, 70%)" opacity="0.14"></circle><circle r="10.5" cx="257" cy="756" fill="hsl(331, 75%, 70%)" opacity="0.49"></circle><circle r="5.5" cx="790" cy="154" fill="hsl(217, 75%, 70%)" opacity="0.87"></circle><circle r="6" cx="623" cy="315" fill="hsl(65, 75%, 70%)" opacity="0.10"></circle><circle r="10.5" cx="84" cy="365" fill="hsl(253, 75%, 70%)" opacity="0.71"></circle><circle r="9.5" cx="121" cy="535" fill="hsl(267, 75%, 70%)" opacity="0.67"></circle><circle r="12.5" cx="278" cy="396" fill="hsl(327, 75%, 70%)" opacity="0.67"></circle><circle r="8.5" cx="75" cy="120" fill="hsl(229, 75%, 70%)" opacity="0.71"></circle><circle r="4.5" cx="587" cy="367" fill="hsl(78, 75%, 70%)" opacity="0.67"></circle><circle r="12" cx="534" cy="183" fill="hsl(124, 75%, 70%)" opacity="0.88"></circle><circle r="8" cx="575" cy="472" fill="hsl(86, 75%, 70%)" opacity="0.70"></circle><circle r="9.5" cx="128" cy="331" fill="hsl(274, 75%, 70%)" opacity="0.10"></circle><circle r="6" cx="590" cy="278" fill="hsl(72, 75%, 70%)" opacity="0.95"></circle><circle r="14" cx="301" cy="703" fill="hsl(314, 75%, 70%)" opacity="0.98"></circle><circle r="10" cx="53" cy="177" fill="hsl(254, 75%, 70%)" opacity="0.24"></circle><circle r="7.5" cx="786" cy="705" fill="hsl(203, 75%, 70%)" opacity="0.86"></circle><circle r="8.5" cx="784" cy="590" fill="hsl(203, 75%, 70%)" opacity="0.22"></circle><circle r="11.5" cx="713" cy="228" fill="hsl(118, 75%, 70%)" opacity="0.52"></circle><circle r="4" cx="627" cy="346" fill="hsl(64, 75%, 70%)" opacity="0.65"></circle><circle r="9.5" cx="557" cy="252" fill="hsl(95, 75%, 70%)" opacity="0.39"></circle><circle r="10.5" cx="244" cy="528" fill="hsl(331, 75%, 70%)" opacity="0.78"></circle></svg>